/* XPM */
static char * stop_xpm[] = {
"48 48 332 2",
"  	c None",
". 	c #2EB800",
"+ 	c #2EBB00",
"@ 	c #2FBC00",
"# 	c #2FBD00",
"$ 	c #2FBE00",
"% 	c #2FBB00",
"& 	c #2EB900",
"* 	c #30BF00",
"= 	c #30C100",
"- 	c #31C400",
"; 	c #31C500",
"> 	c #31C600",
", 	c #31C700",
"' 	c #31C200",
") 	c #30C000",
"! 	c #30BC00",
"~ 	c #30BB00",
"{ 	c #31C000",
"] 	c #32C700",
"^ 	c #32CA00",
"/ 	c #33CC00",
"( 	c #33CE00",
"_ 	c #33CF00",
": 	c #33D000",
"< 	c #33CD00",
"[ 	c #33CB00",
"} 	c #32C800",
"| 	c #32C500",
"1 	c #30BD00",
"2 	c #31B800",
"3 	c #31BE00",
"4 	c #32C400",
"5 	c #33C800",
"6 	c #34CC00",
"7 	c #34CF00",
"8 	c #35D200",
"9 	c #35D400",
"0 	c #35D600",
"a 	c #35D700",
"b 	c #36D700",
"c 	c #35D500",
"d 	c #35D300",
"e 	c #34D000",
"f 	c #34CD00",
"g 	c #33CA00",
"h 	c #33C500",
"i 	c #32C100",
"j 	c #31BB00",
"k 	c #31B901",
"l 	c #32C000",
"m 	c #33C600",
"n 	c #34CB00",
"o 	c #36D600",
"p 	c #38B90E",
"q 	c #3D8326",
"r 	c #3F6134",
"s 	c #3F4B3B",
"t 	c #3D3F3D",
"u 	c #3B3D3B",
"v 	c #384434",
"w 	c #36582A",
"x 	c #347A1D",
"y 	c #34B609",
"z 	c #35D100",
"A 	c #34C800",
"B 	c #33C200",
"C 	c #32BC01",
"D 	c #33C000",
"E 	c #36D500",
"F 	c #39BA0E",
"G 	c #437134",
"H 	c #474747",
"I 	c #464646",
"J 	c #454545",
"K 	c #434343",
"L 	c #414141",
"M 	c #3E3E3E",
"N 	c #3B3B3B",
"O 	c #383838",
"P 	c #353535",
"Q 	c #323232",
"R 	c #315F21",
"S 	c #36D300",
"T 	c #35CE00",
"U 	c #34C900",
"V 	c #34C301",
"W 	c #33BC01",
"X 	c #33BF01",
"Y 	c #34C600",
"Z 	c #35CC00",
"` 	c #36D200",
" .	c #409324",
"..	c #4A4C4A",
"+.	c #4B4B4B",
"@.	c #4A4A4A",
"#.	c #484848",
"$.	c #404040",
"%.	c #3D3D3D",
"&.	c #3A3A3A",
"*.	c #373737",
"=.	c #333333",
"-.	c #303030",
";.	c #2D2E2C",
">.	c #308414",
",.	c #37D800",
"'.	c #36D400",
").	c #36CF00",
"!.	c #35C901",
"~.	c #34C201",
"{.	c #32BD01",
"].	c #34C400",
"^.	c #35CB00",
"/.	c #36D100",
"(.	c #37D700",
"_.	c #42882A",
":.	c #4D4D4D",
"<.	c #4E4E4E",
"[.	c #4F4F4F",
"}.	c #424242",
"|.	c #3F3F3F",
"1.	c #313131",
"2.	c #2E2E2E",
"3.	c #2A2A2A",
"4.	c #2E7416",
"5.	c #38D900",
"6.	c #37D400",
"7.	c #36CE00",
"8.	c #35C801",
"9.	c #34C001",
"0.	c #32B901",
"a.	c #33C101",
"b.	c #35C900",
"c.	c #36D000",
"d.	c #37D600",
"e.	c #525252",
"f.	c #3C3C3C",
"g.	c #393939",
"h.	c #2B2B2B",
"i.	c #272727",
"j.	c #2E8211",
"k.	c #38D800",
"l.	c #37D300",
"m.	c #36CC01",
"n.	c #35C501",
"o.	c #34BD01",
"p.	c #34C500",
"q.	c #35CD00",
"r.	c #3BBB0E",
"s.	c #555555",
"t.	c #565656",
"u.	c #444444",
"v.	c #363636",
"w.	c #2F2F2F",
"x.	c #282828",
"y.	c #242523",
"z.	c #33B506",
"A.	c #38D600",
"B.	c #37D000",
"C.	c #34C101",
"D.	c #33C100",
"E.	c #5A5A5A",
"F.	c #2C2C2C",
"G.	c #242424",
"H.	c #275517",
"I.	c #34C401",
"J.	c #32BA00",
"K.	c #33C400",
"L.	c #3ABB0E",
"M.	c #212121",
"N.	c #32B405",
"O.	c #35C700",
"P.	c #33BE01",
"Q.	c #32BD00",
"R.	c #37D500",
"S.	c #3E8426",
"T.	c #202020",
"U.	c #286F10",
"V.	c #33C001",
"W.	c #32BE00",
"X.	c #34C700",
"Y.	c #35D000",
"Z.	c #232323",
"`.	c #214416",
" +	c #37D200",
".+	c #2D2D2D",
"++	c #292929",
"@+	c #262626",
"#+	c #1F1F1F",
"$+	c #1E2A19",
"%+	c #38DA00",
"&+	c #33C300",
"*+	c #37D900",
"=+	c #252525",
"-+	c #222222",
";+	c #1E1E1E",
">+	c #1B1C1A",
",+	c #38DB00",
"'+	c #1D1D1D",
")+	c #1A1B19",
"!+	c #394434",
"~+	c #343434",
"{+	c #1C1C1C",
"]+	c #1B2717",
"^+	c #33BF00",
"/+	c #35C800",
"(+	c #38D700",
"_+	c #1A1A1A",
":+	c #1D4012",
"<+	c #37D100",
"[+	c #35CA00",
"}+	c #33BD00",
"|+	c #35C600",
"1+	c #38D500",
"2+	c #357B1D",
"3+	c #191919",
"4+	c #246A0C",
"5+	c #34BF00",
"6+	c #33BB00",
"7+	c #35C400",
"8+	c #37CC00",
"9+	c #38D400",
"0+	c #37B609",
"a+	c #171717",
"b+	c #32B104",
"c+	c #37CE00",
"d+	c #36C600",
"e+	c #34BD00",
"f+	c #35C100",
"g+	c #37C900",
"h+	c #38D100",
"i+	c #39D700",
"j+	c #325F21",
"k+	c #1B1B1B",
"l+	c #181818",
"m+	c #1F4C0F",
"n+	c #39D800",
"o+	c #38D200",
"p+	c #37CB00",
"q+	c #36C200",
"r+	c #35BE00",
"s+	c #37C600",
"t+	c #38CE00",
"u+	c #39D400",
"v+	c #161715",
"w+	c #31B103",
"x+	c #3AD500",
"y+	c #39CF00",
"z+	c #37C700",
"A+	c #36BF00",
"B+	c #36BA00",
"C+	c #37C200",
"D+	c #38CA00",
"E+	c #39D100",
"F+	c #3AD700",
"G+	c #328414",
"H+	c #161616",
"I+	c #277909",
"J+	c #3AD100",
"K+	c #39CB00",
"L+	c #38C301",
"M+	c #36BB01",
"N+	c #37BD00",
"O+	c #39C500",
"P+	c #39CC00",
"Q+	c #3AD200",
"R+	c #3BD800",
"S+	c #2F7416",
"T+	c #24690A",
"U+	c #3AD300",
"V+	c #3ACD00",
"W+	c #39C601",
"X+	c #38BE01",
"Y+	c #38C000",
"Z+	c #39C700",
"`+	c #2F8111",
" @	c #3ACE01",
".@	c #39C801",
"+@	c #39C101",
"@@	c #39BA00",
"#@	c #39C100",
"$@	c #3AC800",
"%@	c #3AD600",
"&@	c #34B306",
"*@	c #31B003",
"=@	c #3AC801",
"-@	c #39C201",
";@	c #39BB01",
">@	c #3AC700",
",@	c #3ACC00",
"'@	c #3AD000",
")@	c #3AD400",
"!@	c #34B205",
"~@	c #296E10",
"{@	c #224316",
"]@	c #1D3F12",
"^@	c #24690C",
"/@	c #31B104",
"(@	c #3AD101",
"_@	c #39CC01",
":@	c #39C701",
"<@	c #39BA01",
"[@	c #39C000",
"}@	c #39CA00",
"|@	c #39CD00",
"1@	c #39D300",
"2@	c #39D500",
"3@	c #38D300",
"4@	c #39CE01",
"5@	c #39CA01",
"6@	c #39C001",
"7@	c #38BD00",
"8@	c #38C200",
"9@	c #38C600",
"0@	c #37CF00",
"a@	c #37CC01",
"b@	c #37C901",
"c@	c #37C601",
"d@	c #37C201",
"e@	c #37BD01",
"f@	c #36BD00",
"g@	c #36C000",
"h@	c #36C300",
"i@	c #35C500",
"j@	c #35C301",
"k@	c #35C001",
"l@	c #36BD01",
"m@	c #36B901",
"n@	c #34BA00",
"o@	c #33BC00",
"p@	c #33BE00",
"q@	c #33BA01",
"                                                                                                ",
"                                                                                                ",
"                                                                                                ",
"                                                                                                ",
"                                                                                                ",
"                                                                                                ",
"                                                                                                ",
"                                                                                                ",
"                                      . + @ # $ $ $ # % &                                       ",
"                                  % * = - ; > , , , > - ' ) !                                   ",
"                              ~ { - ] ^ / ( _ _ : _ ( < [ } | ' 1                               ",
"                          2 3 4 5 6 7 8 9 0 a b b b 0 c d e f g h i j                           ",
"                        k l m n 7 d o p q r s t u v w x y b 9 z 6 A B C                         ",
"                      k D m 6 z E F G H I J K L M N O P Q R y b S T U V W                       ",
"                      X Y Z ` b  ...+.+.@.#.I K $.%.&.*.=.-.;.>.,.'.).!.~.                      ",
"                    {.].^./.(._.:.<.[.<.:.+.#.J }.|.N O P 1.2.3.4.5.6.7.8.9.                    ",
"                  0.a.b.c.d. .:.[.e.e.e.[.:.@.I K $.f.g.P Q 2.h.i.j.k.l.m.n.o.                  ",
"                  {.p.q.6.r...<.e.s.t.s.e.<.+.H u.L %.g.v.Q w.h.x.y.z.A.B.!.C.                  ",
"                  D.U c.(.G +.[.e.t.E.t.e.[.+.#.u.L %.&.v.=.w.F.x.G.H.5.l.m.I.                  ",
"                J.K.Z S L.H +.<.e.s.t.s.e.<.+.H u.L %.g.v.Q w.h.x.G.M.N.d.).O.P.                ",
"                Q.Y T R.S.I @.:.[.e.e.e.[.:.@.I K $.f.g.P Q 2.h.i.G.T.U.k./.b.V.                ",
"                W.X.Y.(.r J #.+.:.<.[.<.:.+.#.J }.|.N O P 1.2.3.i.Z.T.`.5. +^.B                 ",
"                l U /.,.s K I #.@.+.+.+.@.#.I K $.%.&.*.=.-..+++@+Z.#+$+%+l.^.&+                ",
"                l U /.*+t L K J I H #.H I J K L M N O P Q w.F.x.=+-+;+>+,+6.Z &+                ",
"                l U ` *+u M $.}.K u.u.u.K }.$.M f.g.v.=.-..+3.i.G.T.'+)+%+l.Z &+                ",
"                D U /.k.!+N %.|.$.L L L $.|.%.N g.*.~+1.2.h.x.=+-+#+{+]+%+l.^.B                 ",
"                ^+/+c.(+w O &.N f.%.%.%.f.N &.O v.~+1.w.F.++i.G.T.'+_+:+k.<+[+D.                ",
"                }+|+7.1+2+P *.O g.g.&.g.g.O *.P =.1.w..+3.i.G.-+#+{+3+4+(+B./+5+                ",
"                6+7+8+9+0+Q =.P P v.v.v.P P =.Q -.2.F.3.i.=+-+T.'+_+a+b+1+c+d+e+                ",
"                  f+g+h+i+j+-.1.Q Q =.Q Q 1.-.w..+h.++i.=+Z.T.'+k+l+m+n+o+p+q+                  ",
"                  r+s+t+u+0+;.2.2.w.w.w.2.2..+F.3.x.i.G.-+T.;+k+l+v+w+x+y+z+A+                  ",
"                  B+C+D+E+F+G+3.h.h.F.h.h.3.++x.i.=+G.-+T.'+k+3+H+I+F+J+K+L+M+                  ",
"                    N+O+P+Q+R+S+i.x.x.x.i.i.@+=+G.-+T.#+'+k+l+H+T+R+U+V+W+X+                    ",
"                      Y+Z+V+U+R+`+y.G.G.G.Z.Z.-+T.#+'+{+_+l+v+I+R+U+ @.@+@                      ",
"                      @@#@$@V+Q+%@&@H.M.T.T.#+;+'+{+_+3+a+m+*@F+Q+ @=@-@;@                      ",
"                        ;@#@>@,@'@)@F+!@~@{@$+>+)+]+]@^@/@F+)@(@_@:@-@;@                        ",
"                          <@[@O+}@|@E+1@2@i+k.k.k.k.(+1+3@E+4@5@W+6@;@                          ",
"                              7@8@9@g+p+c+0@B.<+<+B.0@c+a@b@c@d@e@                              ",
"                                  f@g@h@i@O./+/+/+/+O.i@j@k@l@m@                                ",
"                                      n@o@p@^+^+^+^+p@W q@                                      ",
"                                                                                                ",
"                                                                                                ",
"                                                                                                ",
"                                                                                                ",
"                                                                                                ",
"                                                                                                ",
"                                                                                                ",
"                                                                                                "};
