/* XPM */
static char * down_xpm[] = {
"48 48 288 2",
"  	c None",
". 	c #32880D",
"+ 	c #328A0D",
"@ 	c #328C0D",
"# 	c #328D0D",
"$ 	c #328E0D",
"% 	c #328F0D",
"& 	c #32900D",
"* 	c #33900D",
"= 	c #338F0D",
"- 	c #338E0D",
"; 	c #328B0D",
"> 	c #34890E",
", 	c #34900D",
"' 	c #34950D",
") 	c #35990C",
"! 	c #359C0C",
"~ 	c #359E0C",
"{ 	c #35A00C",
"] 	c #35A10C",
"^ 	c #35A20C",
"/ 	c #36A20C",
"( 	c #36A30C",
"_ 	c #36A10C",
": 	c #369F0C",
"< 	c #359D0C",
"[ 	c #349A0C",
"} 	c #34950C",
"| 	c #33900C",
"1 	c #31890C",
"2 	c #348E0D",
"3 	c #35970C",
"4 	c #369E0B",
"5 	c #37A40B",
"6 	c #37A90A",
"7 	c #37AC0A",
"8 	c #38AF0A",
"9 	c #38B10A",
"0 	c #38B20A",
"a 	c #38B30A",
"b 	c #38B40A",
"c 	c #39B40A",
"d 	c #39B30A",
"e 	c #39B20A",
"f 	c #38B00A",
"g 	c #38AD0A",
"h 	c #37AA0A",
"i 	c #36A50A",
"j 	c #359E0A",
"k 	c #33970A",
"l 	c #318D0A",
"m 	c #338D0C",
"n 	c #34980B",
"o 	c #36A30A",
"p 	c #37AB0A",
"q 	c #38B209",
"r 	c #39B709",
"s 	c #39BB09",
"t 	c #3ABE09",
"u 	c #3AC009",
"v 	c #3AC109",
"w 	c #3AC209",
"x 	c #3BC309",
"y 	c #3BC409",
"z 	c #3BC209",
"A 	c #3BC009",
"B 	c #39BC09",
"C 	c #37B209",
"D 	c #36AB09",
"E 	c #34A209",
"F 	c #329809",
"G 	c #2F8C09",
"H 	c #329409",
"I 	c #0F1F09",
"J 	c #090909",
"K 	c #14250E",
"L 	c #2E9407",
"M 	c #2E8B08",
"N 	c #309A07",
"O 	c #257507",
"P 	c #121212",
"Q 	c #141414",
"R 	c #257607",
"S 	c #2E9906",
"T 	c #2A8A06",
"U 	c #2B8D06",
"V 	c #2F9D05",
"W 	c #31AB05",
"X 	c #162C0E",
"Y 	c #191919",
"Z 	c #1B1B1B",
"` 	c #112809",
" .	c #30AB04",
"..	c #2D9C04",
"+.	c #298C04",
"@.	c #298D04",
"#.	c #2C9D04",
"$.	c #30AC04",
"%.	c #278805",
"&.	c #1D1D1D",
"*.	c #242424",
"=.	c #268805",
"-.	c #2FAC03",
";.	c #2B9D03",
">.	c #278C03",
",.	c #278B03",
"'.	c #2A9C02",
").	c #2EAC02",
"!.	c #31BA02",
"~.	c #16300D",
"{.	c #222222",
"].	c #2B2B2B",
"^.	c #2D2D2D",
"/.	c #262626",
"(.	c #122C09",
"_.	c #2DAC02",
":.	c #299C02",
"<.	c #258A02",
"[.	c #248701",
"}.	c #289901",
"|.	c #2CA901",
"1.	c #30B801",
"2.	c #289203",
"3.	c #2F2F2F",
"4.	c #373737",
"5.	c #2FB801",
"6.	c #289801",
"7.	c #238701",
"8.	c #269401",
"9.	c #2AA501",
"0.	c #2EB501",
"a.	c #31C301",
"b.	c #16330D",
"c.	c #343434",
"d.	c #3E3E3E",
"e.	c #404040",
"f.	c #393939",
"g.	c #122F09",
"h.	c #248E00",
"i.	c #289F00",
"j.	c #2CB000",
"k.	c #30BE00",
"l.	c #289802",
"m.	c #383838",
"n.	c #424242",
"o.	c #494949",
"p.	c #2CAF00",
"q.	c #238E00",
"r.	c #228700",
"s.	c #269900",
"t.	c #2AA900",
"u.	c #2EB900",
"v.	c #31C600",
"w.	c #16340C",
"x.	c #474747",
"y.	c #505050",
"z.	c #525252",
"A.	c #4B4B4B",
"B.	c #123008",
"C.	c #249100",
"D.	c #28A200",
"E.	c #2CB200",
"F.	c #30C100",
"G.	c #289A02",
"H.	c #545454",
"I.	c #5B5B5B",
"J.	c #228900",
"K.	c #269B00",
"L.	c #2AAB00",
"M.	c #2EBA00",
"N.	c #31C800",
"O.	c #595959",
"P.	c #626262",
"Q.	c #646464",
"R.	c #5D5D5D",
"S.	c #249200",
"T.	c #28A300",
"U.	c #2CB300",
"V.	c #30C200",
"W.	c #666666",
"X.	c #676767",
"Y.	c #228A00",
"Z.	c #2AAC00",
"`.	c #2EBB00",
" +	c #16350C",
".+	c #123108",
"++	c #269C00",
"@+	c #249300",
"#+	c #28A400",
"$+	c #2CB400",
"%+	c #289B02",
"&+	c #31C900",
"*+	c #32C900",
"=+	c #228B00",
"-+	c #29A400",
";+	c #2BAC00",
">+	c #2DB400",
",+	c #279C00",
"'+	c #32C800",
")+	c #259400",
"!+	c #29A500",
"~+	c #238B00",
"{+	c #279D00",
"]+	c #2BAD00",
"^+	c #2FBC00",
"/+	c #2FBB00",
"(+	c #269500",
"_+	c #2AA500",
":+	c #2EB500",
"<+	c #31C200",
"[+	c #299A02",
"}+	c #289902",
"|+	c #269400",
"1+	c #258D01",
"2+	c #299E01",
"3+	c #2DAE01",
"4+	c #30BC00",
"5+	c #33C800",
"6+	c #122F08",
"7+	c #32C700",
"8+	c #2FBA00",
"9+	c #2CAC00",
"0+	c #289C00",
"a+	c #248C00",
"b+	c #279601",
"c+	c #2BA601",
"d+	c #2FB501",
"e+	c #32C201",
"f+	c #289803",
"g+	c #289702",
"h+	c #31C000",
"i+	c #2EB300",
"j+	c #2AA400",
"k+	c #279401",
"l+	c #278F02",
"m+	c #2A9F02",
"n+	c #2EAE02",
"o+	c #31BB01",
"p+	c #33C601",
"q+	c #16320D",
"r+	c #122E09",
"s+	c #32C300",
"t+	c #2CAB01",
"u+	c #299C01",
"v+	c #258C01",
"w+	c #299703",
"x+	c #2DA602",
"y+	c #30B402",
"z+	c #32BF02",
"A+	c #279003",
"B+	c #2EB001",
"C+	c #2BA201",
"D+	c #279301",
"E+	c #2C9F03",
"F+	c #2EAC03",
"G+	c #31B702",
"H+	c #152E0D",
"I+	c #112909",
"J+	c #31BC01",
"K+	c #2FB201",
"L+	c #2CA701",
"M+	c #299901",
"N+	c #2B9704",
"O+	c #2DA404",
"P+	c #30AF03",
"Q+	c #31B703",
"R+	c #268604",
"S+	c #248403",
"T+	c #2DA901",
"U+	c #2A9D01",
"V+	c #279002",
"W+	c #2D9C05",
"X+	c #2EA604",
"Y+	c #30AE04",
"Z+	c #30B203",
"`+	c #14280D",
" @	c #102409",
".@	c #2EAF02",
"+@	c #2DA802",
"@@	c #2B9F02",
"#@	c #289302",
"$@	c #2EA405",
"%@	c #2FA804",
"&@	c #227505",
"*@	c #227305",
"=@	c #2CA402",
"-@	c #2B9D02",
";@	c #2C9E04",
"                                                                                                ",
"                                                                                                ",
"                                                                                                ",
"                                                                                                ",
"                        . + @ # $ % % % & & & * * * * * * * * = - # ; .                         ",
"                  > , ' ) ! ~ { ] ^ ^ / / / ( ( ( ( ( ( ( / / / _ : < [ } | 1                   ",
"                2 3 4 5 6 7 8 9 0 a a b c c c c c c c c c c c d e f g h i j k l                 ",
"              m n o p q r s t u v w x x x x x y y y y y x x x z A t B r C D E F G               ",
"              H I J J J J J J J J J J J J J J J J J J J J J J J J J J J J J J K L               ",
"            M N O P P P P P P P P P P P P P P P P P P P P P P P P P P P P P Q R S T             ",
"            U V W X Y Z Z Z Z Z Z Z Z Z Z Z Z Z Z Z Z Z Z Z Z Z Z Z Z Z Z Q `  ...+.            ",
"            @.#.$.%.Q &.*.*.*.*.*.*.*.*.*.*.*.*.*.*.*.*.*.*.*.*.*.*.*.*.&.Q =.-.;.>.            ",
"            ,.'.).!.~.Y {.].^.^.^.^.^.^.^.^.^.^.^.^.^.^.^.^.^.^.^.^./.&.Q (.!._.:.<.            ",
"            [.}.|.1.2.Q &./.3.4.4.4.4.4.4.4.4.4.4.4.4.4.4.4.4.4.4.3./.&.Q 2.5.|.6.7.            ",
"              8.9.0.a.b.Y {.].c.d.e.e.e.e.e.e.e.e.e.e.e.e.e.e.f.3./.&.Q g.a.0.9.8.              ",
"              h.i.j.k.l.Q &./.3.m.n.o.o.o.o.o.o.o.o.o.o.o.o.n.f.3./.&.Q l.k.p.i.q.              ",
"              r.s.t.u.v.w.Y {.].c.d.x.y.z.z.z.z.z.z.z.z.A.n.f.3./.&.Q B.v.u.t.s.r.              ",
"                C.D.E.F.G.Q &./.3.m.n.A.H.I.I.I.I.I.I.H.A.n.f.3./.&.Q G.F.E.D.C.                ",
"                J.K.L.M.N.w.Y {.].c.d.x.y.O.P.Q.Q.R.H.A.n.f.3./.&.Q B.N.M.L.K.J.                ",
"                  S.T.U.V.G.Q &./.3.m.n.A.H.R.W.X.R.H.A.n.f.3./.&.Q G.V.U.T.S.                  ",
"                  Y.K.Z.`.N. +Y {.].c.d.x.y.O.P.R.H.A.n.f.3./.&.Q .+N.`.Z.++Y.                  ",
"                    @+#+$+V.G.Q &./.3.m.n.A.H.R.R.H.A.n.f.3./.&.Q %+V.$+#+@+                    ",
"                    Y.++Z.`.&+ +Y {.].c.d.x.y.O.H.A.n.f.3./.&.Q .+*+`.Z.++Y.                    ",
"                      @+#+$+V.G.Q &./.3.m.n.A.H.H.A.n.f.3./.&.Q %+V.$+#+@+                      ",
"                      Y.++Z.`.&+ +Y {.].c.d.x.y.A.n.f.3./.&.Q .+*+`.Z.++=+                      ",
"                        @+-+$+V.%+Q &./.3.m.n.A.A.n.f.3./.&.Q %+V.$+#+@+                        ",
"                        Y.++;+`.*+ +Y {.].c.d.x.n.f.3./.&.Q .+*+`.Z.++=+                        ",
"                          @+-+>+V.%+Q &./.3.m.n.n.f.3./.&.Q %+V.>+-+@+                          ",
"                          =+,+;+`.'+w.Y {.].c.d.f.3./.&.Q B.'+`.;+,+=+                          ",
"                            )+!+>+V.%+Q &./.3.m.f.3./.&.Q G.V.>+-+)+                            ",
"                            ~+{+]+^+*+w.Y {.].c.3./.&.Q B.'+/+]+,+~+                            ",
"                              (+_+:+<+[+Q &./.3.3./.&.Q }+<+>+_+|+                              ",
"                              1+2+3+4+5+b.Y {.]./.&.Q 6+7+8+9+0+a+                              ",
"                                b+c+d+e+f+Q &././.&.Q g+h+i+j+k+                                ",
"                                l+m+n+o+p+q+Y {.&.Q r+s+1.t+u+v+                                ",
"                                  w+x+y+z+2.Q &.&.Q A+o+B+C+D+                                  ",
"                                    E+F+G+z+H+Y Q I+J+K+L+M+                                    ",
"                                    N+O+P+Q+R+Q Q S+K+T+U+V+                                    ",
"                                      W+X+Y+Z+`+ @.@+@@@#@                                      ",
"                                          $@%@&@*@=@-@                                          ",
"                                              ;@;.                                              ",
"                                                                                                ",
"                                                                                                ",
"                                                                                                ",
"                                                                                                ",
"                                                                                                ",
"                                                                                                ",
"                                                                                                "};
