/* XPM */
static char * brake_xpm[] = {
"48 48 360 2",
"  	c None",
". 	c #B90028",
"+ 	c #BB0029",
"@ 	c #BD0029",
"# 	c #BE0029",
"$ 	c #BC0029",
"% 	c #BF002A",
"& 	c #C2002A",
"* 	c #C4002B",
"= 	c #C6002B",
"- 	c #C7002B",
"; 	c #BD012A",
"> 	c #C1012B",
", 	c #C5002B",
"' 	c #C8002C",
") 	c #CB002C",
"! 	c #CD002D",
"~ 	c #CE002D",
"{ 	c #CF002D",
"] 	c #D0002D",
"^ 	c #C1002A",
"/ 	c #BB0229",
"( 	c #C0012A",
"_ 	c #C5012B",
": 	c #C9012C",
"< 	c #D2002E",
"[ 	c #D4002E",
"} 	c #D6002F",
"| 	c #D7002F",
"1 	c #C9002C",
"2 	c #C0002A",
"3 	c #BA0029",
"4 	c #BC032A",
"5 	c #C2022B",
"6 	c #C7012C",
"7 	c #CC012D",
"8 	c #D0012E",
"9 	c #D4002F",
"0 	c #BA0E34",
"a 	c #83263A",
"b 	c #61343E",
"c 	c #4B3B3E",
"d 	c #3F3D3D",
"e 	c #3D3B3B",
"f 	c #443438",
"g 	c #582A34",
"h 	c #7A1D31",
"i 	c #B60930",
"j 	c #D0002E",
"k 	c #CC002D",
"l 	c #C7002C",
"m 	c #C2012B",
"n 	c #BB0129",
"o 	c #C3032B",
"p 	c #C9022C",
"q 	c #CE012E",
"r 	c #D2012F",
"s 	c #D6012F",
"t 	c #BB0E34",
"u 	c #713441",
"v 	c #474747",
"w 	c #464646",
"x 	c #454545",
"y 	c #434343",
"z 	c #414141",
"A 	c #3E3E3E",
"B 	c #3B3B3B",
"C 	c #383838",
"D 	c #353535",
"E 	c #323232",
"F 	c #5F212F",
"G 	c #B6092F",
"H 	c #C8012C",
"I 	c #BB012A",
"J 	c #C2042B",
"K 	c #C9032D",
"L 	c #CE022E",
"M 	c #D4022F",
"N 	c #D80130",
"O 	c #94243D",
"P 	c #4C4A4A",
"Q 	c #4B4B4B",
"R 	c #4A4A4A",
"S 	c #484848",
"T 	c #404040",
"U 	c #3D3D3D",
"V 	c #3A3A3A",
"W 	c #373737",
"X 	c #333333",
"Y 	c #303030",
"Z 	c #2E2C2D",
"` 	c #84142D",
" .	c #D80030",
"..	c #D4012F",
"+.	c #C0052B",
"@.	c #C7042C",
"#.	c #CE032E",
"$.	c #D80230",
"%.	c #892B3F",
"&.	c #4D4D4D",
"*.	c #4E4E4E",
"=.	c #4F4F4F",
"-.	c #424242",
";.	c #3F3F3F",
">.	c #313131",
",.	c #2E2E2E",
"'.	c #2A2A2A",
").	c #74162B",
"!.	c #D3012F",
"~.	c #CE012D",
"{.	c #C7022C",
"].	c #C0022B",
"^.	c #BD062A",
"/.	c #C5052C",
"(.	c #CC042D",
"_.	c #D2032F",
":.	c #94253D",
"<.	c #525252",
"[.	c #3C3C3C",
"}.	c #393939",
"|.	c #2B2B2B",
"1.	c #272727",
"2.	c #82122A",
"3.	c #D2022E",
"4.	c #CC022D",
"5.	c #C5032C",
"6.	c #BD042A",
"7.	c #C1062B",
"8.	c #C9052C",
"9.	c #D0042E",
"0.	c #D6032F",
"a.	c #BD1034",
"b.	c #555555",
"c.	c #565656",
"d.	c #444444",
"e.	c #363636",
"f.	c #2F2F2F",
"g.	c #282828",
"h.	c #252324",
"i.	c #B5082C",
"j.	c #D7022F",
"k.	c #D0032E",
"l.	c #C9042C",
"m.	c #C5072B",
"n.	c #CD062D",
"o.	c #D3042F",
"p.	c #D90330",
"q.	c #5A5A5A",
"r.	c #2C2C2C",
"s.	c #242424",
"t.	c #551825",
"u.	c #DA0230",
"v.	c #D4032F",
"w.	c #CD042D",
"x.	c #C6052C",
"y.	c #C0092A",
"z.	c #C8072C",
"A.	c #D0062E",
"B.	c #D6052F",
"C.	c #BC1134",
"D.	c #212121",
"E.	c #D7042F",
"F.	c #D0052E",
"G.	c #C9062C",
"H.	c #C1072A",
"I.	c #C2092B",
"J.	c #CA082C",
"K.	c #D2062E",
"L.	c #D80530",
"M.	c #85283B",
"N.	c #202020",
"O.	c #6F1125",
"P.	c #D90430",
"Q.	c #D3052E",
"R.	c #CB062D",
"S.	c #C3082B",
"T.	c #C40A2B",
"U.	c #CC082D",
"V.	c #D4072E",
"W.	c #DA0530",
"X.	c #62353E",
"Y.	c #232323",
"Z.	c #441720",
"`.	c #DB0530",
" +	c #D4062F",
".+	c #CD072D",
"++	c #C5092B",
"@+	c #C50B2B",
"#+	c #CE092D",
"$+	c #D5072E",
"%+	c #DB0630",
"&+	c #2D2D2D",
"*+	c #292929",
"=+	c #262626",
"-+	c #1F1F1F",
";+	c #2A1A1D",
">+	c #DC0530",
",+	c #D6072F",
"'+	c #CF082D",
")+	c #C70A2B",
"!+	c #C60C2B",
"~+	c #CE0A2D",
"{+	c #D6082E",
"]+	c #DC0630",
"^+	c #252525",
"/+	c #222222",
"(+	c #1E1E1E",
"_+	c #1C1A1B",
":+	c #DD0630",
"<+	c #D7072F",
"[+	c #D0092D",
"}+	c #C80B2B",
"|+	c #C70D2B",
"1+	c #CF0B2D",
"2+	c #D6092E",
"3+	c #DD0730",
"4+	c #1D1D1D",
"5+	c #1B191A",
"6+	c #DE0730",
"7+	c #D7082F",
"8+	c #D00A2D",
"9+	c #C90C2B",
"0+	c #C70E2B",
"a+	c #DC0830",
"b+	c #453538",
"c+	c #343434",
"d+	c #1C1C1C",
"e+	c #27171A",
"f+	c #D7092F",
"g+	c #D00B2D",
"h+	c #C80D2B",
"i+	c #C60F2A",
"j+	c #CE0C2C",
"k+	c #D50A2E",
"l+	c #DC082F",
"m+	c #592C34",
"n+	c #1A1A1A",
"o+	c #40131C",
"p+	c #DD0830",
"q+	c #D70A2E",
"r+	c #D00C2D",
"s+	c #C80E2B",
"t+	c #C5102A",
"u+	c #CD0D2C",
"v+	c #D40B2E",
"w+	c #DB092F",
"x+	c #7C2031",
"y+	c #191919",
"z+	c #6C0F20",
"A+	c #DC092F",
"B+	c #D50B2E",
"C+	c #CE0D2C",
"D+	c #C70F2B",
"E+	c #C3112A",
"F+	c #CB0F2C",
"G+	c #D30C2D",
"H+	c #D90A2F",
"I+	c #BA1130",
"J+	c #171717",
"K+	c #B50A2A",
"L+	c #DA0A2F",
"M+	c #D40C2E",
"N+	c #CD0E2C",
"O+	c #C5112A",
"P+	c #C9102B",
"Q+	c #D00D2D",
"R+	c #D70B2E",
"S+	c #DD0A30",
"T+	c #60242F",
"U+	c #1B1B1B",
"V+	c #181818",
"W+	c #4D111C",
"X+	c #DD0930",
"Y+	c #D80B2F",
"Z+	c #D20D2D",
"`+	c #CA102B",
" @	c #C6112A",
".@	c #CE0F2C",
"+@	c #D40D2D",
"@@	c #DA0B2F",
"#@	c #BA102F",
"$@	c #171516",
"%@	c #B50B2A",
"&@	c #DB0B2F",
"*@	c #D50C2E",
"=@	c #CF0F2C",
"-@	c #C8112A",
";@	c #C31229",
">@	c #D10E2D",
",@	c #D70C2E",
"'@	c #DC0A2F",
")@	c #86182C",
"!@	c #161616",
"~@	c #7C0D22",
"{@	c #D80C2E",
"]@	c #D20E2D",
"^@	c #CB102B",
"/@	c #C4122A",
"(@	c #CD0F2C",
"_@	c #D30D2D",
":@	c #D80B2E",
"<@	c #DD0A2F",
"[@	c #761A2A",
"}@	c #6B0E1F",
"|@	c #D90B2F",
"1@	c #C7112A",
"2@	c #C9112B",
"3@	c #D40D2E",
"4@	c #D90C2F",
"5@	c #83162A",
"6@	c #7B0D22",
"7@	c #D50D2E",
"8@	c #C41329",
"9@	c #CA112B",
"0@	c #B60E2C",
"a@	c #561A25",
"b@	c #B40B2A",
"c@	c #DC0B2F",
"d@	c #D80C2F",
"e@	c #C41229",
"f@	c #D30E2D",
"g@	c #D60D2E",
"h@	c #B60D2C",
"i@	c #6F1425",
"j@	c #441820",
"k@	c #40141C",
"l@	c #6B1020",
"m@	c #B40C2A",
"n@	c #DC0B30",
"o@	c #C31329",
"p@	c #CD102B",
"q@	c #D00F2C",
"r@	c #D80D2E",
"s@	c #DA0C2E",
"t@	c #DB0C2F",
"u@	c #DA0C2F",
"v@	c #CD102C",
"w@	c #C8112B",
"x@	c #C6132A",
"y@	c #C9122B",
"z@	c #CD112C",
"A@	c #CF102C",
"B@	c #D10F2D",
"C@	c #D30F2D",
"D@	c #D40E2D",
"E@	c #D50E2E",
"F@	c #D60E2E",
"G@	c #D20F2D",
"H@	c #C5132A",
"I@	c #C8132A",
"J@	c #CA122B",
"K@	c #CC122B",
"L@	c #CE112C",
"M@	c #C21429",
"N@	c #C21529",
"O@	c #C41529",
"P@	c #C51429",
"Q@	c #C6142A",
"R@	c #C5142A",
"S@	c #C31529",
"                                                                                                ",
"                                                                                                ",
"                                                                                                ",
"                                                                                                ",
"                                                                                                ",
"                                                                                                ",
"                                                                                                ",
"                                                                                                ",
"                                      . + @ # # # # $ + .                                       ",
"                                  $ % & * = - - - - = * & % $                                   ",
"                              ; > , ' ) ! ~ { ] ] { ~ ! ) ' , ^ @                               ",
"                          / ( _ : ! ] < [ } | | | | } [ < ] ! 1 , 2 3                           ",
"                        4 5 6 7 8 9 | 0 a b c d e f g h i } 9 j k l m n                         ",
"                      4 o p q r s t u v w x y z A B C D E F G } < ~ H m I                       ",
"                      J K L M N O P Q Q R S w y T U V W X Y Z `  ...q H 5                       ",
"                    +.@.#.M $.%.&.*.=.*.&.Q S x -.;.B C D >.,.'.).N !.~.{.].                    ",
"                  ^./.(._.$.:.&.=.<.<.<.=.&.R w y T [.}.D E ,.|.1.2.N 3.4.5.6.                  ",
"                  7.8.9.0.a.P *.<.b.c.b.<.*.Q v d.z U }.e.E f.|.g.h.i.j.k.l.J                   ",
"                  m.n.o.p.u Q =.<.c.q.c.<.=.Q S d.z U V e.X f.r.g.s.t.u.v.w.x.                  ",
"                y.z.A.B.C.v Q *.<.b.c.b.<.*.Q v d.z U }.e.E f.|.g.s.D.i.E.F.G.H.                ",
"                I.J.K.L.M.w R &.=.<.<.<.=.&.R w y T [.}.D E ,.|.1.s.N.O.P.Q.R.S.                ",
"                T.U.V.W.X.x S Q &.*.=.*.&.Q S x -.;.B C D >.,.'.1.Y.N.Z.`. +.+++                ",
"                @+#+$+%+c y w S R Q Q Q R S w y T U V W X Y &+*+=+Y.-+;+>+,+'+)+                ",
"                !+~+{+]+d z y x w v S v w x y z A B C D E f.r.g.^+/+(+_+:+<+[+}+                ",
"                |+1+2+3+e A T -.y d.d.d.y -.T A [.}.e.X Y &+'.1.s.N.4+5+6+7+8+9+                ",
"                0+1+2+a+b+B U ;.T z z z T ;.U B }.W c+>.,.|.g.^+/+-+d+e+3+f+g+h+                ",
"                i+j+k+l+m+C V B [.U U U [.B V C e.c+>.f.r.*+1.s.N.4+n+o+p+q+r+s+                ",
"                t+u+v+w+x+D W C }.}.V }.}.C W D X >.f.&+'.1.s./+-+d+y+z+A+B+C+D+                ",
"                E+F+G+H+I+E X D D e.e.e.D D X E Y ,.r.'.1.^+/+N.4+n+J+K+L+M+N+O+                ",
"                  P+Q+R+S+T+Y >.E E X E E >.Y f.&+|.*+1.^+Y.N.4+U+V+W+X+Y+Z+`+                  ",
"                   @.@+@@@#@Z ,.,.f.f.f.,.,.&+r.'.g.1.s./+N.(+U+V+$@%@&@*@=@-@                  ",
"                  ;@`+>@,@'@)@'.|.|.r.|.|.'.*+g.1.^+s./+N.4+U+y+!@~@S+{@]@^@/@                  ",
"                     @(@_@:@<@[@1.g.g.g.1.1.=+^+s./+N.-+4+U+V+!@}@S+|@+@.@1@                    ",
"                      2@=@3@4@S+5@h.s.s.s.Y.Y./+N.-+4+d+n+V+$@6@S+4@7@=@2@                      ",
"                      8@9@=@+@{@&@0@a@D.N.N.-+(+4+d+n+y+J+W+b@c@d@3@=@9@/@                      ",
"                        e@2@.@f@g@4@c@h@i@j@;+_+5+e+k@l@m@n@4@g@f@=@9@/@                        ",
"                          o@-@p@q@f@g@r@s@t@c@c@c@c@t@u@r@g@f@q@v@w@o@                          ",
"                              x@y@z@A@B@C@D@E@F@F@E@E@C@G@A@z@y@x@                              ",
"                                  H@I@J@K@z@L@L@L@L@z@K@J@I@H@M@                                ",
"                                      N@O@P@Q@Q@Q@Q@R@S@N@                                      ",
"                                                                                                ",
"                                                                                                ",
"                                                                                                ",
"                                                                                                ",
"                                                                                                ",
"                                                                                                ",
"                                                                                                ",
"                                                                                                "};
