/* XPM */
static char * up_xpm[] = {
"48 48 351 2",
"  	c None",
". 	c #238D00",
"+ 	c #249200",
"@ 	c #269900",
"# 	c #1C6A02",
"$ 	c #228B00",
"% 	c #259700",
"& 	c #27A000",
"* 	c #29A700",
"= 	c #13260C",
"- 	c #228900",
"; 	c #28A300",
"> 	c #2AAC00",
", 	c #218002",
"' 	c #131313",
") 	c #249400",
"! 	c #28A200",
"~ 	c #2BAE00",
"{ 	c #2DB700",
"] 	c #142C0C",
"^ 	c #171717",
"/ 	c #238F00",
"( 	c #279F00",
"_ 	c #2DB800",
": 	c #258D02",
"< 	c #1B1B1B",
"[ 	c #2BAC00",
"} 	c #29A800",
"| 	c #2DB600",
"1 	c #30C100",
"2 	c #15310C",
"3 	c #202020",
"4 	c #2AA800",
"5 	c #2CB100",
"6 	c #2FBE00",
"7 	c #279502",
"8 	c #242424",
"9 	c #228A00",
"0 	c #269B00",
"a 	c #2AAB00",
"b 	c #2EB900",
"c 	c #31C600",
"d 	c #15320C",
"e 	c #282828",
"f 	c #259300",
"g 	c #29A300",
"h 	c #2CB300",
"i 	c #289902",
"j 	c #2C2C2C",
"k 	c #238A00",
"l 	c #279C00",
"m 	c #2EBB00",
"n 	c #31C800",
"o 	c #15330C",
"p 	c #313131",
"q 	c #32C800",
"r 	c #2FBB00",
"s 	c #289C00",
"t 	c #248A00",
"u 	c #269300",
"v 	c #2AA400",
"w 	c #2DB300",
"x 	c #30C200",
"y 	c #289A02",
"z 	c #353535",
"A 	c #258A00",
"B 	c #299C00",
"C 	c #2CAC00",
"D 	c #16340C",
"E 	c #393939",
"F 	c #3A3A3A",
"G 	c #30BB00",
"H 	c #2DAC00",
"I 	c #268B00",
"J 	c #289300",
"K 	c #2BA400",
"L 	c #2EB400",
"M 	c #31C200",
"N 	c #299A02",
"O 	c #3D3D3D",
"P 	c #32C200",
"Q 	c #2FB400",
"R 	c #2CA400",
"S 	c #299300",
"T 	c #298B00",
"U 	c #2C9C00",
"V 	c #2EAC00",
"W 	c #31BB00",
"X 	c #33C900",
"Y 	c #424242",
"Z 	c #34C900",
"` 	c #32BB00",
" .	c #2FAC00",
"..	c #2D9C00",
"+.	c #2A8B00",
"@.	c #2C9300",
"#.	c #2FA400",
"$.	c #31B400",
"%.	c #33C200",
"&.	c #464646",
"*.	c #2A9B02",
"=.	c #34C200",
"-.	c #32B400",
";.	c #30A400",
">.	c #2D9400",
",.	c #2E8B00",
"'.	c #309C00",
").	c #32AC00",
"!.	c #33BB00",
"~.	c #35C900",
"{.	c #4B4B4B",
"].	c #36C900",
"^.	c #34BC00",
"/.	c #33AD00",
"(.	c #319D00",
"_.	c #2F8C00",
":.	c #319400",
"<.	c #33A400",
"[.	c #34B400",
"}.	c #36C200",
"|.	c #2B9B02",
"1.	c #4E4E4E",
"2.	c #4F4F4F",
"3.	c #36C300",
"4.	c #35B500",
"5.	c #34A500",
"6.	c #329500",
"7.	c #338B00",
"8.	c #349D00",
"9.	c #35AD00",
"0.	c #37BC00",
"a.	c #38C900",
"b.	c #17340C",
"c.	c #535353",
"d.	c #36AE00",
"e.	c #359E00",
"f.	c #348D00",
"g.	c #369401",
"h.	c #37A500",
"i.	c #38B400",
"j.	c #39C300",
"k.	c #2D9B02",
"l.	c #575757",
"m.	c #38B500",
"n.	c #38A600",
"o.	c #379601",
"p.	c #388C01",
"q.	c #399D01",
"r.	c #39AD01",
"s.	c #3ABC00",
"t.	c #3AC900",
"u.	c #5C5C5C",
"v.	c #3BCA00",
"w.	c #3ABD00",
"x.	c #39AF00",
"y.	c #399F01",
"z.	c #388F01",
"A.	c #3A9501",
"B.	c #3AA601",
"C.	c #3BB501",
"D.	c #3BC300",
"E.	c #2E9B02",
"F.	c #5F5F5F",
"G.	c #606060",
"H.	c #2E9C02",
"I.	c #3BC400",
"J.	c #3BB601",
"K.	c #3AA801",
"L.	c #3A9802",
"M.	c #3A8D02",
"N.	c #3B9E02",
"O.	c #3CAD01",
"P.	c #3CBC01",
"Q.	c #3CC901",
"R.	c #676767",
"S.	c #656565",
"T.	c #3CCA00",
"U.	c #3CBE01",
"V.	c #3BB001",
"W.	c #3BA102",
"X.	c #3A9103",
"Y.	c #3B9603",
"Z.	c #3CA602",
"`.	c #3CB502",
" +	c #3DC301",
".+	c #2F9B03",
"++	c #5E5E5E",
"@+	c #2F9C03",
"#+	c #3CC501",
"$+	c #3CB802",
"%+	c #3BA903",
"&+	c #3B9A04",
"*+	c #3B8E04",
"=+	c #3C9E03",
"-+	c #3CAD03",
";+	c #3DBC02",
">+	c #3DC901",
",+	c #555555",
"'+	c #3CCA01",
")+	c #3CBE02",
"!+	c #3BB103",
"~+	c #3BA204",
"{+	c #3A9206",
"]+	c #3B9505",
"^+	c #3CA504",
"/+	c #3DB403",
"(+	c #3DC102",
"_+	c #2F9903",
":+	c #4D4D4D",
"<+	c #2E9A04",
"[+	c #3CC403",
"}+	c #3BB704",
"|+	c #3BA905",
"1+	c #3A9A07",
"2+	c #3B9D06",
"3+	c #3CAC05",
"4+	c #3DBA03",
"5+	c #3DC602",
"6+	c #17320C",
"7+	c #444444",
"8+	c #17330C",
"9+	c #3CC803",
"0+	c #3BBC04",
"a+	c #3BAF06",
"b+	c #3AA107",
"c+	c #3A9308",
"d+	c #3BA207",
"e+	c #3CB005",
"f+	c #3DBD04",
"g+	c #2F9504",
"h+	c #3C3C3C",
"i+	c #2E9604",
"j+	c #3BC004",
"k+	c #3BB406",
"l+	c #3AA608",
"m+	c #3A980A",
"n+	c #3A9809",
"o+	c #3BA607",
"p+	c #3CB406",
"q+	c #3DC004",
"r+	c #17300C",
"s+	c #333333",
"t+	c #3BC205",
"u+	c #3BB606",
"v+	c #3AA908",
"w+	c #3A9C0B",
"x+	c #3B9B0A",
"y+	c #3CA808",
"z+	c #3DB406",
"A+	c #2E8C05",
"B+	c #2A2A2A",
"C+	c #2D8C06",
"D+	c #3BB607",
"E+	c #3BAA09",
"F+	c #3A9D0B",
"G+	c #3CA708",
"H+	c #3DB306",
"I+	c #162C0D",
"J+	c #222222",
"K+	c #3BB407",
"L+	c #3AA909",
"M+	c #3B990B",
"N+	c #3CA408",
"O+	c #2C7B07",
"P+	c #191919",
"Q+	c #2B7B07",
"R+	c #3AA408",
"S+	c #3A990B",
"T+	c #3C9E08",
"U+	c #15250D",
"V+	c #111111",
"W+	c #399D08",
"X+	c #3B9608",
"Y+	c #3C9F07",
"Z+	c #3CA605",
"`+	c #3DAC04",
" @	c #3DB203",
".@	c #3DB502",
"+@	c #3DB801",
"@@	c #3DBA01",
"#@	c #3DBC00",
"$@	c #3DBD00",
"%@	c #3DBE00",
"&@	c #3CBE00",
"*@	c #3BBE00",
"=@	c #39BC00",
"-@	c #39BA00",
";@	c #38B801",
">@	c #38B401",
",@	c #38B002",
"'@	c #38AB03",
")@	c #38A404",
"!@	c #389D06",
"~@	c #389408",
"{@	c #3A9307",
"]@	c #3B9905",
"^@	c #3B9F04",
"/@	c #3CA303",
"(@	c #3CA901",
"_@	c #3CAA01",
":@	c #3CAC00",
"<@	c #3CAD00",
"[@	c #3BAD00",
"}@	c #3AAD00",
"|@	c #39AD00",
"1@	c #38AD00",
"2@	c #37AC00",
"3@	c #37AB00",
"4@	c #36AA01",
"5@	c #36A801",
"6@	c #36A501",
"7@	c #35A202",
"8@	c #359D03",
"9@	c #359704",
"0@	c #359005",
"a@	c #398B05",
"b@	c #398F04",
"c@	c #399303",
"d@	c #3A9602",
"e@	c #3A9801",
"f@	c #3A9901",
"g@	c #3A9A01",
"h@	c #3A9A00",
"i@	c #3A9B00",
"j@	c #399B00",
"k@	c #389B00",
"l@	c #379B00",
"m@	c #369B00",
"n@	c #359B00",
"o@	c #349A00",
"p@	c #339801",
"q@	c #339701",
"r@	c #329401",
"s@	c #329102",
"t@	c #328D03",
"u@	c #328703",
"v@	c #378402",
"w@	c #378501",
"x@	c #378601",
"y@	c #378701",
"z@	c #368700",
"A@	c #358700",
"B@	c #348700",
"C@	c #338700",
"D@	c #328700",
"E@	c #318700",
"F@	c #308700",
"G@	c #308600",
"H@	c #2F8500",
"I@	c #2F8401",
"J@	c #2E8201",
"                                                                                                ",
"                                                                                                ",
"                                                                                                ",
"                                                                                                ",
"                                                                                                ",
"                                                                                                ",
"                                                                                                ",
"                                              . .                                               ",
"                                          + @ # # @ +                                           ",
"                                      $ % & * = = * & % $                                       ",
"                                    - % ; > , ' ' , > ; % -                                     ",
"                                    ) ! ~ { ] ^ ^ ] { ~ ! )                                     ",
"                                  / ( > _ : ' < < ' : _ [ ( /                                   ",
"                                - @ } | 1 2 ^ 3 3 ^ 2 1 | 4 @ -                                 ",
"                                + ! 5 6 7 ' < 8 8 < ' 7 6 5 ! +                                 ",
"                              9 0 a b c d ^ 3 e e 3 ^ d c b a 0 9                               ",
"                              f g h 1 i ' < 8 j j 8 < ' i 1 h g f                               ",
"                            k l [ m n o ^ 3 e p p e 3 ^ o q r [ s t                             ",
"                            u v w x y ' < 8 j z z j 8 < ' y x w v u                             ",
"                          A B C r q D ^ 3 e p E F p e 3 ^ D q G H B I                           ",
"                          J K L M N ' < 8 j z O O z j 8 < ' N P Q R S                           ",
"                        T U V W X D ^ 3 e p E Y Y F p e 3 ^ D Z `  ...+.                        ",
"                        @.#.$.%.N ' < 8 j z O &.&.O z j 8 < ' *.=.-.;.>.                        ",
"                      ,.'.).!.~.D ^ 3 e p E Y {.{.Y F p e 3 ^ D ].^./.(._.                      ",
"                      :.<.[.}.|.' < 8 j z O &.1.2.&.O z j 8 < ' |.3.4.5.6.                      ",
"                    7.8.9.0.a.b.^ 3 e p E Y {.c.c.{.Y F p e 3 ^ b.a.0.d.e.f.                    ",
"                    g.h.i.j.k.' < 8 j z O &.1.l.l.2.&.O z j 8 < ' k.j.m.n.o.                    ",
"                  p.q.r.s.t.b.^ 3 e p E Y {.c.u.u.c.{.Y F p e 3 ^ b.v.w.x.y.z.                  ",
"                  A.B.C.D.E.' < 8 j z O &.1.l.F.G.l.2.&.O z j 8 < ' H.I.J.K.L.                  ",
"                M.N.O.P.Q.b.^ 3 e p E Y {.c.u.R.S.u.c.{.Y F p e 3 ^ b.T.U.V.W.X.                ",
"                Y.Z.`. +.+' < 8 j z O &.1.++++++++++l.2.&.O z j 8 < ' @+#+$+%+&+                ",
"              *+=+-+;+>+b.^ 3 e p E Y {.,+,+,+,+,+,+,+c.{.Y F p e 3 ^ b.'+)+!+~+{+              ",
"              ]+^+/+(+_+' < 8 j z O :+:+:+:+:+:+:+:+:+:+:+&.O z j 8 < ' <+[+}+|+1+              ",
"              2+3+4+5+6+^ 3 e p E 7+7+7+7+7+7+7+7+7+7+7+7+7+Y F p e 3 ^ 8+9+0+a+b+              ",
"            c+d+e+f+g+' < 8 j h+h+h+h+h+h+h+h+h+h+h+h+h+h+h+h+h+z j 8 < ' i+j+k+l+m+            ",
"            n+o+p+q+r+^ 3 e s+s+s+s+s+s+s+s+s+s+s+s+s+s+s+s+s+s+s+p e 3 ^ r+t+u+v+w+            ",
"            x+y+z+A+' < B+B+B+B+B+B+B+B+B+B+B+B+B+B+B+B+B+B+B+B+B+B+B+8 < ' C+D+E+F+            ",
"            x+G+H+I+^ J+J+J+J+J+J+J+J+J+J+J+J+J+J+J+J+J+J+J+J+J+J+J+J+J+3 ^ I+K+L+w+            ",
"            M+N+O+P+P+P+P+P+P+P+P+P+P+P+P+P+P+P+P+P+P+P+P+P+P+P+P+P+P+P+P+P+' Q+R+S+            ",
"              T+U+V+V+V+V+V+V+V+V+V+V+V+V+V+V+V+V+V+V+V+V+V+V+V+V+V+V+V+V+V+V+U+W+              ",
"              X+Y+Z+`+ @.@+@@@#@$@$@$@%@%@%@%@%@%@&@&@&@*@*@w.w.=@-@;@>@,@'@)@!@~@              ",
"                {@]@^@/@Z.(@_@:@:@<@<@<@<@<@[@[@[@[@}@}@|@1@1@2@3@4@5@6@7@8@9@0@                ",
"                  a@b@c@d@e@f@g@h@i@i@j@j@j@j@j@k@k@l@l@m@n@n@o@o@p@q@r@s@t@u@                  ",
"                        v@w@x@y@z@z@z@z@z@z@z@A@A@A@B@C@C@D@E@F@G@H@I@J@                        ",
"                                                                                                ",
"                                                                                                ",
"                                                                                                ",
"                                                                                                "};
